<svg xmlns="http://www.w3.org/2000/svg" width="1024" height="1024" viewBox="0 0 1024 1024" role="img" aria-label="OctoBrain">
  <defs>
    <radialGradient id="bg" cx="50%" cy="38%" r="75%">
      <stop offset="0%" stop-color="#0a1428" />
      <stop offset="100%" stop-color="#050711" />
    </radialGradient>
    <radialGradient id="core" cx="50%" cy="42%" r="60%">
      <stop offset="0%" stop-color="#e0e7ff" />
      <stop offset="45%" stop-color="#a78bfa" />
      <stop offset="100%" stop-color="#5b3fb0" />
    </radialGradient>
    <linearGradient id="arm" x1="0" y1="0" x2="0" y2="1">
      <stop offset="0%" stop-color="#a78bfa" />
      <stop offset="100%" stop-color="#67e8f9" />
    </linearGradient>
  </defs>

  <rect width="1024" height="1024" fill="url(#bg)" />

  <g stroke="rgba(166,193,235,0.14)" stroke-width="4">
    <line x1="512" y1="172" x2="512" y2="852" />
    <line x1="172" y1="512" x2="852" y2="512" />
    <line x1="272" y1="272" x2="752" y2="752" />
    <line x1="752" y1="272" x2="272" y2="752" />
  </g>

  <g stroke="url(#arm)" stroke-width="26" stroke-linecap="round" opacity="0.92">
    <line x1="512" y1="512" x2="512" y2="192" />
    <line x1="512" y1="512" x2="738" y2="286" />
    <line x1="512" y1="512" x2="832" y2="512" />
    <line x1="512" y1="512" x2="738" y2="738" />
    <line x1="512" y1="512" x2="512" y2="832" />
    <line x1="512" y1="512" x2="286" y2="738" />
    <line x1="512" y1="512" x2="192" y2="512" />
    <line x1="512" y1="512" x2="286" y2="286" />
  </g>

  <g fill="#67e8f9">
    <circle cx="512" cy="192" r="30" />
    <circle cx="738" cy="286" r="30" />
    <circle cx="832" cy="512" r="30" />
    <circle cx="738" cy="738" r="30" />
    <circle cx="512" cy="832" r="30" />
    <circle cx="286" cy="738" r="30" />
    <circle cx="192" cy="512" r="30" />
    <circle cx="286" cy="286" r="30" />
  </g>

  <circle cx="512" cy="512" r="140" fill="url(#core)" />
  <circle cx="512" cy="512" r="140" fill="none" stroke="rgba(244,247,255,0.55)" stroke-width="6" />
</svg>
